<?xml version="1.0" encoding="UTF-8" standalone="no"?>
<!-- Created with Inkscape (http://www.inkscape.org/) -->

<svg
   xmlns:dc="http://purl.org/dc/elements/1.1/"
   xmlns:cc="http://creativecommons.org/ns#"
   xmlns:rdf="http://www.w3.org/1999/02/22-rdf-syntax-ns#"
   xmlns:svg="http://www.w3.org/2000/svg"
   xmlns="http://www.w3.org/2000/svg"
   xmlns:sodipodi="http://sodipodi.sourceforge.net/DTD/sodipodi-0.dtd"
   xmlns:inkscape="http://www.inkscape.org/namespaces/inkscape"
   width="199.99886"
   height="205.12541"
   id="svg2"
   version="1.1"
   inkscape:version="0.48.4 r9939"
   sodipodi:docname="GOOD_SERVICE.svg">
  <defs
     id="defs4" />
  <sodipodi:namedview
     id="base"
     pagecolor="#ffffff"
     bordercolor="#666666"
     borderopacity="1.0"
     inkscape:pageopacity="0.0"
     inkscape:pageshadow="2"
     inkscape:zoom="1.979899"
     inkscape:cx="222.39206"
     inkscape:cy="-2.1008585"
     inkscape:document-units="px"
     inkscape:current-layer="layer1"
     showgrid="false"
     fit-margin-top="0"
     fit-margin-left="0"
     fit-margin-right="0"
     fit-margin-bottom="0"
     inkscape:window-width="1839"
     inkscape:window-height="1056"
     inkscape:window-x="81"
     inkscape:window-y="24"
     inkscape:window-maximized="1" />
  <metadata
     id="metadata7">
    <rdf:RDF>
      <cc:Work
         rdf:about="">
        <dc:format>image/svg+xml</dc:format>
        <dc:type
           rdf:resource="http://purl.org/dc/dcmitype/StillImage" />
        <dc:title></dc:title>
      </cc:Work>
    </rdf:RDF>
  </metadata>
  <g
     inkscape:label="Layer 1"
     inkscape:groupmode="layer"
     id="layer1"
     transform="translate(-585.9303,-277.80573)">
    <g
       transform="translate(535.93843,-69.479777)"
       id="g4012">
      <path
         transform="matrix(0.97530681,0,0,1.0003068,-53.421132,259.22725)"
         d="m 308.57143,190.57646 c 0,55.22848 -44.77153,100 -100,100 -55.22848,0 -100,-44.77152 -100,-100 0,-55.22847 44.77152,-99.999998 100,-99.999998 55.22847,0 100,44.771528 100,99.999998 z"
         sodipodi:ry="100"
         sodipodi:rx="100"
         sodipodi:cy="190.57646"
         sodipodi:cx="208.57143"
         id="path3016-53"
         style="fill:none;stroke:#008000;stroke-width:5.06212378;stroke-linecap:butt;stroke-linejoin:miter;stroke-miterlimit:4;stroke-opacity:1;stroke-dasharray:none"
         sodipodi:type="arc" />
      <path
         transform="matrix(1.0026982,0,0,-1.1214931,-61.295288,723.45055)"
         sodipodi:open="true"
         sodipodi:end="6.0722971"
         sodipodi:start="3.3456755"
         d="m 163.50428,217.3026 c 5.41666,-12.07195 31.02432,-19.8328 57.19631,-17.33434 18.78335,1.79312 33.49778,8.53419 37.51299,17.18569"
         sodipodi:ry="22.321428"
         sodipodi:rx="48.392857"
         sodipodi:cy="221.82646"
         sodipodi:cx="210.89285"
         id="path3786-3"
         style="fill:none;stroke:#008000;stroke-width:4.71505308;stroke-linecap:butt;stroke-linejoin:miter;stroke-miterlimit:4;stroke-opacity:1;stroke-dasharray:none"
         sodipodi:type="arc" />
      <path
         transform="matrix(1.0737901,0,0,1.0737901,-67.168772,262.00111)"
         d="m 187.77588,147.01297 c 0,8.72467 -7.07274,15.79741 -15.79741,15.79741 -8.72467,0 -15.79741,-7.07274 -15.79741,-15.79741 0,-8.72467 7.07274,-15.79741 15.79741,-15.79741 8.72467,0 15.79741,7.07274 15.79741,15.79741 z"
         sodipodi:ry="15.797413"
         sodipodi:rx="15.797413"
         sodipodi:cy="147.01297"
         sodipodi:cx="171.97847"
         id="path3800-6"
         style="fill:#008000;fill-rule:evenodd;stroke:#008000;stroke-width:1px;stroke-linecap:butt;stroke-linejoin:miter;stroke-opacity:1"
         sodipodi:type="arc" />
      <path
         transform="matrix(1.0737901,0,0,1.0737901,0.33122226,262.00111)"
         d="m 187.77588,147.01297 c 0,8.72467 -7.07274,15.79741 -15.79741,15.79741 -8.72467,0 -15.79741,-7.07274 -15.79741,-15.79741 0,-8.72467 7.07274,-15.79741 15.79741,-15.79741 8.72467,0 15.79741,7.07274 15.79741,15.79741 z"
         sodipodi:ry="15.797413"
         sodipodi:rx="15.797413"
         sodipodi:cy="147.01297"
         sodipodi:cx="171.97847"
         id="path3800-6-7"
         style="fill:#008000;fill-rule:evenodd;stroke:#008000;stroke-width:1px;stroke-linecap:butt;stroke-linejoin:miter;stroke-opacity:1"
         sodipodi:type="arc" />
    </g>
  </g>
</svg>
