<?xml version="1.0" encoding="UTF-8" standalone="no"?>
<!-- Created with Inkscape (http://www.inkscape.org/) -->

<svg
   xmlns:dc="http://purl.org/dc/elements/1.1/"
   xmlns:cc="http://creativecommons.org/ns#"
   xmlns:rdf="http://www.w3.org/1999/02/22-rdf-syntax-ns#"
   xmlns:svg="http://www.w3.org/2000/svg"
   xmlns="http://www.w3.org/2000/svg"
   version="1.1"
   width="199.99886"
   height="205.12541"
   id="svg2">
  <defs
     id="defs4" />
  <metadata
     id="metadata7">
    <rdf:RDF>
      <cc:Work
         rdf:about="">
        <dc:format>image/svg+xml</dc:format>
        <dc:type
           rdf:resource="http://purl.org/dc/dcmitype/StillImage" />
        <dc:title></dc:title>
      </cc:Work>
    </rdf:RDF>
  </metadata>
  <g
     transform="translate(-339.45611,-349.00323)"
     id="layer1">
    <g
       transform="translate(39.464241,266.71772)"
       id="g4006">
      <path
         d="m 308.57143,190.57646 a 100,100 0 1 1 -200,0 100,100 0 1 1 200,0 z"
         transform="matrix(0.97530681,0,0,1.0003068,196.57887,-5.7727473)"
         id="path3016-5"
         style="fill:none;stroke:#ffcc00;stroke-width:5.06212378;stroke-linecap:butt;stroke-linejoin:miter;stroke-miterlimit:4;stroke-opacity:1;stroke-dasharray:none" />
      <path
         d="m 187.77588,147.01297 a 15.797413,15.797413 0 1 1 -31.59482,0 15.797413,15.797413 0 1 1 31.59482,0 z"
         transform="matrix(1.0737901,0,0,1.0737901,182.83123,-2.9988973)"
         id="path3800-8"
         style="fill:#ffcc00;fill-rule:evenodd;stroke:#ffcc00;stroke-width:1px;stroke-linecap:butt;stroke-linejoin:miter;stroke-opacity:1" />
      <path
         d="m 352.23782,235.12436 95.52434,-20.52435"
         id="path3831"
         style="fill:#ffd42a;stroke:#ffcc00;stroke-width:5;stroke-linecap:butt;stroke-linejoin:miter;stroke-miterlimit:4;stroke-opacity:1;stroke-dasharray:none" />
      <path
         d="m 187.77588,147.01297 a 15.797413,15.797413 0 1 1 -31.59482,0 15.797413,15.797413 0 1 1 31.59482,0 z"
         transform="matrix(1.0737901,0,0,1.0737901,250.33122,-2.9988897)"
         id="path3800-8-4"
         style="fill:#ffcc00;fill-rule:evenodd;stroke:#ffcc00;stroke-width:1px;stroke-linecap:butt;stroke-linejoin:miter;stroke-opacity:1" />
    </g>
  </g>
</svg>
